<svg width="460" height="180" viewBox="0 0 460 180" fill="none" xmlns="http://www.w3.org/2000/svg">
  <path d="M269 50V114H323V130H253V50H269Z" fill="black"/>
  <path d="M173 50L197 82.5L221 50H237V130H221V77L197 109L173 77V130H157V50H173Z" fill="black"/>
  <path d="M77 50L101 82.5L125 50H141V130H125V77L101 109L77 77V130H61V50H77Z" fill="black"/>
  <path d="M47.282 11L56.282 26.5885L18.8564 89.7654L54.8564 152.119L45.5 167.913L0.499996 89.9711L47.282 11Z" fill="black"/>
  <path d="M384.621 46.6399L393.799 46.537L398.299 54.3312L351.517 133.302L342.339 133.405L337.841 125.614L384.621 46.6399Z" fill="black"/>
  <path d="M414.851 11L423.851 26.5885L459.851 88.9423L413.069 167.913L404.069 152.325L441.495 89.1481L405.495 26.7942L414.851 11Z" fill="black"/>
</svg>
